<svg width="215" height="215" viewBox="0 0 215 215" fill="none" xmlns="http://www.w3.org/2000/svg">
<g id="abstract 2">
<rect id="Rectangle 31" x="215" y="215" width="107.5" height="107.5" rx="50" transform="rotate(180 215 215)" fill="url(#paint0_linear_97_231)"/>
<rect id="Rectangle 32" x="215" width="107.5" height="107.5" rx="50" transform="rotate(90 215 0)" fill="url(#paint1_linear_97_231)"/>
<rect id="Rectangle 33" width="107.5" height="107.5" rx="50" transform="matrix(1 0 0 -1 0 215)" fill="url(#paint2_linear_97_231)"/>
<rect id="Rectangle 34" width="107.5" height="107.5" rx="50" transform="matrix(4.37114e-08 1 1 -4.37114e-08 0 0)" fill="url(#paint3_linear_97_231)"/>
<rect id="Rectangle 35" x="193.5" y="193.5" width="86" height="86" rx="43" transform="rotate(180 193.5 193.5)" fill="url(#paint4_linear_97_231)"/>
<rect id="Rectangle 36" x="193.5" y="21.4998" width="86" height="86" rx="43" transform="rotate(90 193.5 21.4998)" fill="url(#paint5_linear_97_231)"/>
<rect id="Rectangle 37" width="86" height="86" rx="43" transform="matrix(1 0 0 -1 21.5001 193.5)" fill="url(#paint6_linear_97_231)"/>
<rect id="Rectangle 38" width="86" height="86" rx="43" transform="matrix(4.37114e-08 1 1 -4.37114e-08 21.5001 21.4998)" fill="url(#paint7_linear_97_231)"/>
<rect id="Rectangle 39" x="169.611" y="167.222" width="59.7222" height="59.7222" rx="29.8611" transform="rotate(180 169.611 167.222)" fill="url(#paint8_linear_97_231)"/>
<rect id="Rectangle 40" x="169.611" y="45.3889" width="59.7222" height="59.7222" rx="29.8611" transform="rotate(90 169.611 45.3889)" fill="url(#paint9_linear_97_231)"/>
<rect id="Rectangle 41" width="62.1111" height="59.7222" rx="29.8611" transform="matrix(1 0 0 -1 47.7777 167.222)" fill="url(#paint10_linear_97_231)"/>
<rect id="Rectangle 42" width="59.7222" height="62.1111" rx="29.8611" transform="matrix(4.37114e-08 1 1 -4.37114e-08 47.7777 45.3889)" fill="url(#paint11_linear_97_231)"/>
</g>
<defs>
<linearGradient id="paint0_linear_97_231" x1="229.333" y1="226.944" x2="322.5" y2="322.5" gradientUnits="userSpaceOnUse">
<stop stop-color="#AAAAAA"/>
<stop offset="1" stop-color="white" stop-opacity="0"/>
</linearGradient>
<linearGradient id="paint1_linear_97_231" x1="229.333" y1="11.9444" x2="322.5" y2="107.5" gradientUnits="userSpaceOnUse">
<stop stop-color="#AAAAAA"/>
<stop offset="1" stop-color="white" stop-opacity="0"/>
</linearGradient>
<linearGradient id="paint2_linear_97_231" x1="14.3333" y1="11.9444" x2="107.5" y2="107.5" gradientUnits="userSpaceOnUse">
<stop stop-color="#AAAAAA"/>
<stop offset="1" stop-color="white" stop-opacity="0"/>
</linearGradient>
<linearGradient id="paint3_linear_97_231" x1="14.3333" y1="11.9444" x2="107.5" y2="107.5" gradientUnits="userSpaceOnUse">
<stop stop-color="#AAAAAA"/>
<stop offset="1" stop-color="white" stop-opacity="0"/>
</linearGradient>
<linearGradient id="paint4_linear_97_231" x1="204.967" y1="203.056" x2="279.5" y2="279.5" gradientUnits="userSpaceOnUse">
<stop stop-color="#AAAAAA"/>
<stop offset="1" stop-color="white" stop-opacity="0"/>
</linearGradient>
<linearGradient id="paint5_linear_97_231" x1="204.967" y1="31.0553" x2="279.5" y2="107.5" gradientUnits="userSpaceOnUse">
<stop stop-color="#AAAAAA"/>
<stop offset="1" stop-color="white" stop-opacity="0"/>
</linearGradient>
<linearGradient id="paint6_linear_97_231" x1="11.4667" y1="9.55555" x2="86" y2="86" gradientUnits="userSpaceOnUse">
<stop stop-color="#AAAAAA"/>
<stop offset="1" stop-color="white" stop-opacity="0"/>
</linearGradient>
<linearGradient id="paint7_linear_97_231" x1="11.4667" y1="9.55555" x2="86" y2="86" gradientUnits="userSpaceOnUse">
<stop stop-color="#AAAAAA"/>
<stop offset="1" stop-color="white" stop-opacity="0"/>
</linearGradient>
<linearGradient id="paint8_linear_97_231" x1="177.574" y1="173.858" x2="229.333" y2="226.944" gradientUnits="userSpaceOnUse">
<stop stop-color="#AAAAAA"/>
<stop offset="1" stop-color="white" stop-opacity="0"/>
</linearGradient>
<linearGradient id="paint9_linear_97_231" x1="177.574" y1="52.0247" x2="229.333" y2="105.111" gradientUnits="userSpaceOnUse">
<stop stop-color="#AAAAAA"/>
<stop offset="1" stop-color="white" stop-opacity="0"/>
</linearGradient>
<linearGradient id="paint10_linear_97_231" x1="8.28148" y1="6.6358" x2="59.9497" y2="61.7486" gradientUnits="userSpaceOnUse">
<stop stop-color="#AAAAAA"/>
<stop offset="1" stop-color="white" stop-opacity="0"/>
</linearGradient>
<linearGradient id="paint11_linear_97_231" x1="7.96297" y1="6.90123" x2="61.8046" y2="59.9995" gradientUnits="userSpaceOnUse">
<stop stop-color="#AAAAAA"/>
<stop offset="1" stop-color="white" stop-opacity="0"/>
</linearGradient>
</defs>
</svg>
